# xmcd CD database file
#
# Track frame offsets:
#	150
#	25132
#	44902
#	67547
#	84152
#	104847
#	132777
#	158907
#	179397
#	199885
#	213272
#	213572
#	213872
#	214172
#	214472
#	214772
#	215072
#	215372
#	215672
#	215972
#	216272
#	216572
#
# Disc length: 4202 seconds
#
# Revision: 2
# Processed by: cddbd v1.5.2PL0 Copyright (c) Steve Scherf et al.
# Submitted via: CDex 1.70beta3
#
DISCID=80106816
DTITLE=BUMP OF CHICKEN - jupiter
DYEAR=2011
DGENRE=misc
TTITLE0=Stage of the ground
TTITLE1=天体観測
TTITLE2=Title of mine
TTITLE3=キャッチボール
TTITLE4=ハルジオン
TTITLE5=ベンチとコーヒー
TTITLE6=メロディーフラッグ
TTITLE7=ベル
TTITLE8=ダイヤモンド
TTITLE9=ダンデライオン
TTITLE10=[Blank]
TTITLE11=[Blank]
TTITLE12=[Blank]
TTITLE13=[Blank]
TTITLE14=[Blank]
TTITLE15=[Blank]
TTITLE16=[Blank]
TTITLE17=[Blank]
TTITLE18=[Blank]
TTITLE19=[Blank]
TTITLE20=[Blank]
TTITLE21=In my heart/In my NIKKE
EXTD=YEAR: 2011
EXTT0=
EXTT1=
EXTT2=
EXTT3=
EXTT4=
EXTT5=
EXTT6=
EXTT7=
EXTT8=
EXTT9=
EXTT10=
EXTT11=
EXTT12=
EXTT13=
EXTT14=
EXTT15=
EXTT16=
EXTT17=
EXTT18=
EXTT19=
EXTT20=
EXTT21=
PLAYORDER=
